<?xml version="1.0" encoding="utf-8"?>
<!-- Generator: Adobe Illustrator 22.1.0, SVG Export Plug-In . SVG Version: 6.00 Build 0)  -->
<svg version="1.1" id="レイヤー_1" xmlns="http://www.w3.org/2000/svg" xmlns:xlink="http://www.w3.org/1999/xlink" x="0px"
	 y="0px" viewBox="0 0 100 100" style="enable-background:new 0 0 100 100;" xml:space="preserve">
<style type="text/css">
	.st0{fill:#333333;}
</style>
<path class="st0" d="M41.1,94.2H17.3c-2.4,0-4.4-2-4.4-4.4V11c0-2.4,2-4.4,4.4-4.4h23.8c2.4,0,4.4,2,4.4,4.4v78.8
	C45.5,92.2,43.5,94.2,41.1,94.2z M83,94.2H59.2c-2.4,0-4.4-2-4.4-4.4V11c0-2.4,2-4.4,4.4-4.4H83c2.4,0,4.4,2,4.4,4.4v78.8
	C87.4,92.2,85.4,94.2,83,94.2z"/>
</svg>
